<?xml version="1.0" standalone="no"?>
<!DOCTYPE svg PUBLIC "-//W3C//DTD SVG 20010904//EN"
 "http://www.w3.org/TR/2001/REC-SVG-20010904/DTD/svg10.dtd">
<svg version="1.0" xmlns="http://www.w3.org/2000/svg"
 width="980.000000pt" height="956.000000pt" viewBox="0 0 980.000000 956.000000"
 preserveAspectRatio="xMidYMid meet">

<g transform="translate(0.000000,956.000000) scale(0.100000,-0.100000)"
fill="#000000" stroke="none">
<path d="M4583 9549 c-1399 -84 -2720 -785 -3579 -1899 -1168 -1513 -1330
-3576 -413 -5247 530 -966 1375 -1726 2400 -2158 155 -65 463 -171 627 -214
l112 -30 0 890 c0 489 -2 889 -4 889 -2 0 -49 -18 -105 -41 -189 -75 -273 -92
-466 -93 -193 -1 -241 8 -382 75 -203 96 -360 275 -474 538 -165 383 -283 550
-478 677 -247 162 -249 264 -4 264 235 0 478 -166 667 -455 91 -140 217 -270
316 -328 36 -21 101 -50 145 -64 73 -25 94 -27 240 -27 121 -1 178 3 235 17
83 20 281 85 293 96 4 4 16 40 27 80 33 119 90 218 174 304 53 55 64 47 -119
72 -161 22 -382 67 -536 109 -364 100 -623 240 -834 451 -219 218 -357 477
-455 857 -76 298 -103 492 -103 758 -1 517 137 949 405 1267 l78 93 -24 72
c-109 327 -92 754 44 1108 l31 78 52 6 c63 8 203 -7 312 -33 246 -60 579 -216
859 -404 l89 -59 86 26 c310 94 676 132 1195 123 435 -7 750 -45 998 -118 l96
-29 104 69 c256 170 609 333 859 396 116 30 256 42 309 28 40 -10 52 -37 96
-198 48 -179 66 -301 71 -502 6 -217 -8 -335 -57 -481 l-29 -83 81 -96 c235
-280 362 -599 398 -1003 27 -301 -11 -738 -89 -1043 -214 -829 -803 -1273
-1861 -1402 -68 -8 -128 -15 -133 -15 -5 0 19 -21 54 -47 35 -27 96 -80 135
-120 117 -116 183 -224 231 -380 l28 -88 3 -1087 c1 -599 5 -1088 7 -1088 3 0
78 24 168 54 1465 490 2616 1640 3097 3096 492 1489 215 3148 -733 4399 -1001
1321 -2577 2041 -4244 1940z"/>
</g>
</svg>
